<svg width="315" height="32" viewBox="0 0 315 32" fill="none" xmlns="http://www.w3.org/2000/svg">
<g filter="url(#filter0_ii_539_37)">
<rect width="315" height="32" rx="4" fill="black" fill-opacity="0.2"/>
<g clip-path="url(#clip0_539_37)">
<path d="M290.348 19.3478L294 23" stroke="#91B599" stroke-width="1.5" stroke-linecap="round" stroke-linejoin="round"/>
<path d="M285.783 20.5652C288.976 20.5652 291.565 17.9763 291.565 14.7826C291.565 11.589 288.976 9 285.783 9C282.589 9 280 11.589 280 14.7826C280 17.9763 282.589 20.5652 285.783 20.5652Z" stroke="#91B599" stroke-width="1.5" stroke-linecap="round" stroke-linejoin="round"/>
</g>
<path d="M23.0824 22L20.2983 11.8182H21.5511L23.679 20.1108H23.7784L25.946 11.8182H27.3381L29.5057 20.1108H29.6051L31.733 11.8182H32.9858L30.2017 22H28.929L26.6818 13.8864H26.6023L24.3551 22H23.0824ZM37.6839 14.3636V15.358H33.7266V14.3636H37.6839ZM34.88 12.5341H36.0533V19.8125C36.0533 20.1439 36.1013 20.3925 36.1974 20.5582C36.2969 20.7206 36.4228 20.83 36.5753 20.8864C36.7311 20.9394 36.8951 20.9659 37.0675 20.9659C37.1967 20.9659 37.3028 20.9593 37.3857 20.946C37.4685 20.9295 37.5348 20.9162 37.5845 20.9062L37.8232 21.9602C37.7436 21.9901 37.6326 22.0199 37.4901 22.0497C37.3475 22.0829 37.1669 22.0994 36.9482 22.0994C36.6167 22.0994 36.2919 22.0282 35.9737 21.8857C35.6589 21.7431 35.397 21.526 35.1882 21.2344C34.9827 20.9427 34.88 20.5748 34.88 20.1307V12.5341ZM41.696 22.179C41.2121 22.179 40.773 22.0878 40.3786 21.9055C39.9841 21.7199 39.6709 21.4531 39.4389 21.1051C39.2069 20.7538 39.0909 20.3295 39.0909 19.8324C39.0909 19.3949 39.1771 19.0402 39.3494 18.7685C39.5218 18.4934 39.7521 18.2779 40.0405 18.1222C40.3288 17.9664 40.647 17.8504 40.995 17.7741C41.3464 17.6946 41.6993 17.6316 42.054 17.5852C42.518 17.5256 42.8942 17.4808 43.1825 17.451C43.4742 17.4179 43.6863 17.3632 43.8189 17.2869C43.9548 17.2107 44.0227 17.0781 44.0227 16.8892V16.8494C44.0227 16.3589 43.8885 15.9777 43.62 15.706C43.3549 15.4342 42.9522 15.2983 42.4119 15.2983C41.8518 15.2983 41.4126 15.4209 41.0945 15.6662C40.7763 15.9115 40.5526 16.1733 40.4233 16.4517L39.3097 16.054C39.5085 15.59 39.7737 15.2287 40.1051 14.9702C40.4399 14.7083 40.8045 14.526 41.1989 14.4233C41.5966 14.3172 41.9877 14.2642 42.3722 14.2642C42.6174 14.2642 42.8991 14.294 43.2173 14.3537C43.5388 14.41 43.8487 14.5277 44.147 14.7067C44.4486 14.8857 44.6989 15.1558 44.8977 15.517C45.0966 15.8783 45.196 16.3622 45.196 16.9688V22H44.0227V20.9659H43.9631C43.8835 21.1316 43.7509 21.3089 43.5653 21.4979C43.3797 21.6868 43.1328 21.8475 42.8246 21.9801C42.5163 22.1127 42.1402 22.179 41.696 22.179ZM41.875 21.125C42.339 21.125 42.7301 21.0339 43.0483 20.8516C43.3698 20.6693 43.6117 20.4339 43.7741 20.1456C43.9399 19.8572 44.0227 19.554 44.0227 19.2358V18.1619C43.973 18.2216 43.8636 18.2763 43.6946 18.326C43.5289 18.3724 43.3366 18.4138 43.1179 18.4503C42.9025 18.4834 42.692 18.5133 42.4865 18.5398C42.2843 18.563 42.1203 18.5829 41.9943 18.5994C41.6894 18.6392 41.4044 18.7038 41.1392 18.7933C40.8774 18.8795 40.6652 19.0104 40.5028 19.1861C40.3438 19.3584 40.2642 19.5937 40.2642 19.892C40.2642 20.2997 40.415 20.608 40.7166 20.8168C41.0215 21.0223 41.4077 21.125 41.875 21.125ZM48.5108 17.4062V22H47.3375V11.8182H48.5108V15.5568H48.6103C48.7892 15.1624 49.0577 14.8492 49.4157 14.6172C49.7769 14.3819 50.2575 14.2642 50.8574 14.2642C51.3778 14.2642 51.8335 14.3686 52.2246 14.5774C52.6157 14.7829 52.919 15.0994 53.1344 15.527C53.3532 15.9512 53.4625 16.4915 53.4625 17.1477V22H52.2892V17.2273C52.2892 16.6207 52.1318 16.1518 51.8169 15.8203C51.5054 15.4856 51.0729 15.3182 50.5194 15.3182C50.1349 15.3182 49.7902 15.3994 49.4853 15.5618C49.1837 15.7242 48.945 15.9612 48.7694 16.2727C48.597 16.5843 48.5108 16.9621 48.5108 17.4062ZM62.6488 22.1591C61.9329 22.1591 61.3164 21.9901 60.7994 21.652C60.2823 21.3139 59.8846 20.8482 59.6062 20.255C59.3278 19.6617 59.1886 18.9839 59.1886 18.2216C59.1886 17.446 59.3311 16.7616 59.6161 16.1683C59.9045 15.5717 60.3055 15.1061 60.8192 14.7713C61.3363 14.4332 61.9395 14.2642 62.6289 14.2642C63.1658 14.2642 63.6497 14.3636 64.0806 14.5625C64.5115 14.7614 64.8645 15.0398 65.1396 15.3977C65.4147 15.7557 65.5853 16.1733 65.6516 16.6506H64.4783C64.3888 16.3026 64.19 15.9943 63.8817 15.7259C63.5768 15.4541 63.1658 15.3182 62.6488 15.3182C62.1914 15.3182 61.7904 15.4375 61.4457 15.6761C61.1043 15.9115 60.8375 16.2446 60.6452 16.6754C60.4563 17.103 60.3619 17.6051 60.3619 18.1818C60.3619 18.7718 60.4547 19.2855 60.6403 19.723C60.8292 20.1605 61.0943 20.5002 61.4357 20.7422C61.7804 20.9841 62.1848 21.1051 62.6488 21.1051C62.9537 21.1051 63.2305 21.0521 63.479 20.946C63.7276 20.84 63.9381 20.6875 64.1104 20.4886C64.2828 20.2898 64.4054 20.0511 64.4783 19.7727H65.6516C65.5853 20.2235 65.4213 20.6295 65.1594 20.9908C64.9009 21.3487 64.5579 21.6338 64.1303 21.8459C63.7061 22.0547 63.2122 22.1591 62.6488 22.1591ZM69.614 22.179C69.1301 22.179 68.6909 22.0878 68.2965 21.9055C67.9021 21.7199 67.5889 21.4531 67.3569 21.1051C67.1249 20.7538 67.0089 20.3295 67.0089 19.8324C67.0089 19.3949 67.0951 19.0402 67.2674 18.7685C67.4397 18.4934 67.6701 18.2779 67.9585 18.1222C68.2468 17.9664 68.565 17.8504 68.913 17.7741C69.2643 17.6946 69.6173 17.6316 69.9719 17.5852C70.436 17.5256 70.8121 17.4808 71.1005 17.451C71.3922 17.4179 71.6043 17.3632 71.7369 17.2869C71.8728 17.2107 71.9407 17.0781 71.9407 16.8892V16.8494C71.9407 16.3589 71.8065 15.9777 71.538 15.706C71.2728 15.4342 70.8701 15.2983 70.3299 15.2983C69.7698 15.2983 69.3306 15.4209 69.0124 15.6662C68.6942 15.9115 68.4705 16.1733 68.3413 16.4517L67.2276 16.054C67.4265 15.59 67.6916 15.2287 68.0231 14.9702C68.3578 14.7083 68.7224 14.526 69.1168 14.4233C69.5146 14.3172 69.9057 14.2642 70.2901 14.2642C70.5354 14.2642 70.8171 14.294 71.1353 14.3537C71.4568 14.41 71.7667 14.5277 72.065 14.7067C72.3666 14.8857 72.6168 15.1558 72.8157 15.517C73.0146 15.8783 73.114 16.3622 73.114 16.9688V22H71.9407V20.9659H71.881C71.8015 21.1316 71.6689 21.3089 71.4833 21.4979C71.2977 21.6868 71.0508 21.8475 70.7425 21.9801C70.4343 22.1127 70.0581 22.179 69.614 22.179ZM69.793 21.125C70.257 21.125 70.6481 21.0339 70.9663 20.8516C71.2878 20.6693 71.5297 20.4339 71.6921 20.1456C71.8578 19.8572 71.9407 19.554 71.9407 19.2358V18.1619C71.891 18.2216 71.7816 18.2763 71.6126 18.326C71.4469 18.3724 71.2546 18.4138 71.0359 18.4503C70.8204 18.4834 70.61 18.5133 70.4045 18.5398C70.2023 18.563 70.0382 18.5829 69.9123 18.5994C69.6074 18.6392 69.3223 18.7038 69.0572 18.7933C68.7953 18.8795 68.5832 19.0104 68.4208 19.1861C68.2617 19.3584 68.1822 19.5937 68.1822 19.892C68.1822 20.2997 68.333 20.608 68.6346 20.8168C68.9395 21.0223 69.3256 21.125 69.793 21.125ZM76.4288 17.4062V22H75.2555V14.3636H76.389V15.5568H76.4885C76.6674 15.169 76.9392 14.8575 77.3038 14.6222C77.6684 14.3835 78.139 14.2642 78.7157 14.2642C79.2328 14.2642 79.6852 14.3703 80.073 14.5824C80.4608 14.7912 80.7624 15.1094 80.9778 15.5369C81.1932 15.9612 81.301 16.4981 81.301 17.1477V22H80.1277V17.2273C80.1277 16.6274 79.9719 16.16 79.6603 15.8253C79.3488 15.4872 78.9212 15.3182 78.3777 15.3182C78.0031 15.3182 77.6684 15.3994 77.3734 15.5618C77.0817 15.7242 76.8514 15.9612 76.6824 16.2727C76.5133 16.5843 76.4288 16.9621 76.4288 17.4062ZM88.5558 17.4062V22H87.3825V11.8182H88.5558V15.5568H88.6552C88.8342 15.1624 89.1026 14.8492 89.4606 14.6172C89.8219 14.3819 90.3024 14.2642 90.9023 14.2642C91.4227 14.2642 91.8784 14.3686 92.2695 14.5774C92.6606 14.7829 92.9639 15.0994 93.1793 15.527C93.3981 15.9512 93.5075 16.4915 93.5075 17.1477V22H92.3342V17.2273C92.3342 16.6207 92.1767 16.1518 91.8619 15.8203C91.5503 15.4856 91.1178 15.3182 90.5643 15.3182C90.1798 15.3182 89.8351 15.3994 89.5302 15.5618C89.2286 15.7242 88.9899 15.9612 88.8143 16.2727C88.6419 16.5843 88.5558 16.9621 88.5558 17.4062ZM97.9011 22.179C97.4172 22.179 96.978 22.0878 96.5836 21.9055C96.1892 21.7199 95.876 21.4531 95.644 21.1051C95.412 20.7538 95.296 20.3295 95.296 19.8324C95.296 19.3949 95.3822 19.0402 95.5545 18.7685C95.7269 18.4934 95.9572 18.2779 96.2456 18.1222C96.5339 17.9664 96.8521 17.8504 97.2001 17.7741C97.5514 17.6946 97.9044 17.6316 98.2591 17.5852C98.7231 17.5256 99.0993 17.4808 99.3876 17.451C99.6793 17.4179 99.8914 17.3632 100.024 17.2869C100.16 17.2107 100.228 17.0781 100.228 16.8892V16.8494C100.228 16.3589 100.094 15.9777 99.8251 15.706C99.56 15.4342 99.1573 15.2983 98.617 15.2983C98.0569 15.2983 97.6177 15.4209 97.2995 15.6662C96.9814 15.9115 96.7576 16.1733 96.6284 16.4517L95.5147 16.054C95.7136 15.59 95.9788 15.2287 96.3102 14.9702C96.6449 14.7083 97.0095 14.526 97.4039 14.4233C97.8017 14.3172 98.1928 14.2642 98.5772 14.2642C98.8225 14.2642 99.1042 14.294 99.4224 14.3537C99.7439 14.41 100.054 14.5277 100.352 14.7067C100.654 14.8857 100.904 15.1558 101.103 15.517C101.302 15.8783 101.401 16.3622 101.401 16.9688V22H100.228V20.9659H100.168C100.089 21.1316 99.956 21.3089 99.7704 21.4979C99.5848 21.6868 99.3379 21.8475 99.0297 21.9801C98.7214 22.1127 98.3452 22.179 97.9011 22.179ZM98.0801 21.125C98.5441 21.125 98.9352 21.0339 99.2534 20.8516C99.5749 20.6693 99.8168 20.4339 99.9792 20.1456C100.145 19.8572 100.228 19.554 100.228 19.2358V18.1619C100.178 18.2216 100.069 18.2763 99.8997 18.326C99.734 18.3724 99.5417 18.4138 99.323 18.4503C99.1075 18.4834 98.8971 18.5133 98.6916 18.5398C98.4894 18.563 98.3253 18.5829 98.1994 18.5994C97.8945 18.6392 97.6094 18.7038 97.3443 18.7933C97.0824 18.8795 96.8703 19.0104 96.7079 19.1861C96.5488 19.3584 96.4693 19.5937 96.4693 19.892C96.4693 20.2997 96.6201 20.608 96.9217 20.8168C97.2266 21.0223 97.6127 21.125 98.0801 21.125ZM104.716 11.8182V22H103.543V11.8182H104.716ZM106.865 24.8636V14.3636H107.998V15.5767H108.138C108.224 15.4441 108.343 15.2751 108.496 15.0696C108.651 14.8608 108.873 14.6752 109.162 14.5128C109.453 14.3471 109.848 14.2642 110.345 14.2642C110.988 14.2642 111.555 14.425 112.045 14.7464C112.536 15.0679 112.919 15.5237 113.194 16.1136C113.469 16.7036 113.606 17.3996 113.606 18.2017C113.606 19.0104 113.469 19.7114 113.194 20.3047C112.919 20.8946 112.537 21.352 112.05 21.6768C111.563 21.9983 111.001 22.1591 110.365 22.1591C109.874 22.1591 109.482 22.0779 109.187 21.9155C108.892 21.7498 108.665 21.5625 108.506 21.3537C108.346 21.1416 108.224 20.9659 108.138 20.8267H108.038V24.8636H106.865ZM108.018 18.1818C108.018 18.7585 108.103 19.2673 108.272 19.7081C108.441 20.1456 108.688 20.4886 109.013 20.7372C109.337 20.9825 109.735 21.1051 110.206 21.1051C110.696 21.1051 111.106 20.9759 111.434 20.7173C111.765 20.4555 112.014 20.1042 112.18 19.6634C112.349 19.2192 112.433 18.7254 112.433 18.1818C112.433 17.6449 112.35 17.161 112.184 16.7301C112.022 16.2959 111.775 15.9529 111.444 15.701C111.116 15.4458 110.703 15.3182 110.206 15.3182C109.729 15.3182 109.327 15.4392 109.003 15.6811C108.678 15.9197 108.433 16.2545 108.267 16.6854C108.101 17.1129 108.018 17.6117 108.018 18.1818ZM120.089 24.8636C119.89 24.8636 119.713 24.8471 119.557 24.8139C119.402 24.7841 119.294 24.7543 119.234 24.7244L119.532 23.6903C119.818 23.7633 120.069 23.7898 120.288 23.7699C120.507 23.75 120.701 23.6522 120.87 23.4766C121.042 23.3042 121.2 23.0241 121.342 22.6364L121.561 22.0398L118.737 14.3636H120.01L122.118 20.4489H122.197L124.305 14.3636H125.578L122.336 23.1136C122.191 23.508 122.01 23.8345 121.795 24.093C121.579 24.3549 121.329 24.5488 121.044 24.6747C120.762 24.8007 120.444 24.8636 120.089 24.8636ZM129.955 22.1591C129.266 22.1591 128.661 21.995 128.141 21.6669C127.624 21.3388 127.219 20.8797 126.928 20.2898C126.639 19.6998 126.495 19.0104 126.495 18.2216C126.495 17.4261 126.639 16.7318 126.928 16.1385C127.219 15.5452 127.624 15.0845 128.141 14.7564C128.661 14.4283 129.266 14.2642 129.955 14.2642C130.645 14.2642 131.248 14.4283 131.765 14.7564C132.285 15.0845 132.69 15.5452 132.978 16.1385C133.27 16.7318 133.416 17.4261 133.416 18.2216C133.416 19.0104 133.27 19.6998 132.978 20.2898C132.69 20.8797 132.285 21.3388 131.765 21.6669C131.248 21.995 130.645 22.1591 129.955 22.1591ZM129.955 21.1051C130.479 21.1051 130.91 20.9709 131.248 20.7024C131.586 20.4339 131.836 20.081 131.999 19.6435C132.161 19.206 132.242 18.732 132.242 18.2216C132.242 17.7112 132.161 17.2356 131.999 16.7947C131.836 16.3539 131.586 15.9976 131.248 15.7259C130.91 15.4541 130.479 15.3182 129.955 15.3182C129.432 15.3182 129.001 15.4541 128.663 15.7259C128.325 15.9976 128.075 16.3539 127.912 16.7947C127.75 17.2356 127.669 17.7112 127.669 18.2216C127.669 18.732 127.75 19.206 127.912 19.6435C128.075 20.081 128.325 20.4339 128.663 20.7024C129.001 20.9709 129.432 21.1051 129.955 21.1051ZM140.019 18.8778V14.3636H141.192V22H140.019V20.7074H139.94C139.761 21.0952 139.482 21.425 139.104 21.6967C138.727 21.9652 138.249 22.0994 137.673 22.0994C137.195 22.0994 136.771 21.995 136.4 21.7862C136.029 21.5741 135.737 21.2559 135.525 20.8317C135.313 20.4041 135.207 19.8655 135.207 19.2159V14.3636H136.38V19.1364C136.38 19.6932 136.536 20.1373 136.847 20.4688C137.162 20.8002 137.563 20.9659 138.05 20.9659C138.342 20.9659 138.639 20.8913 138.94 20.7422C139.245 20.593 139.5 20.3643 139.706 20.0561C139.915 19.7479 140.019 19.3551 140.019 18.8778ZM150.68 14.3636V15.358H146.563V14.3636H150.68ZM147.796 22V13.3097C147.796 12.8722 147.899 12.5076 148.104 12.2159C148.31 11.9242 148.577 11.7055 148.905 11.5597C149.233 11.4138 149.579 11.3409 149.944 11.3409C150.232 11.3409 150.467 11.3641 150.65 11.4105C150.832 11.4569 150.968 11.5 151.057 11.5398L150.719 12.554C150.66 12.5341 150.577 12.5092 150.471 12.4794C150.368 12.4496 150.232 12.4347 150.063 12.4347C149.675 12.4347 149.395 12.5324 149.223 12.728C149.054 12.9235 148.969 13.2102 148.969 13.5881V22H147.796ZM152.324 22V14.3636H153.497V22H152.324ZM152.92 13.0909C152.692 13.0909 152.495 13.013 152.329 12.8572C152.166 12.7015 152.085 12.5142 152.085 12.2955C152.085 12.0767 152.166 11.8894 152.329 11.7337C152.495 11.5779 152.692 11.5 152.92 11.5C153.149 11.5 153.345 11.5779 153.507 11.7337C153.673 11.8894 153.756 12.0767 153.756 12.2955C153.756 12.5142 153.673 12.7015 153.507 12.8572C153.345 13.013 153.149 13.0909 152.92 13.0909ZM156.819 17.4062V22H155.646V14.3636H156.78V15.5568H156.879C157.058 15.169 157.33 14.8575 157.694 14.6222C158.059 14.3835 158.53 14.2642 159.106 14.2642C159.623 14.2642 160.076 14.3703 160.464 14.5824C160.851 14.7912 161.153 15.1094 161.368 15.5369C161.584 15.9612 161.692 16.4981 161.692 17.1477V22H160.518V17.2273C160.518 16.6274 160.363 16.16 160.051 15.8253C159.739 15.4872 159.312 15.3182 158.768 15.3182C158.394 15.3182 158.059 15.3994 157.764 15.5618C157.472 15.7242 157.242 15.9612 157.073 16.2727C156.904 16.5843 156.819 16.9621 156.819 17.4062ZM166.719 22.1591C166.083 22.1591 165.521 21.9983 165.034 21.6768C164.547 21.352 164.165 20.8946 163.89 20.3047C163.615 19.7114 163.478 19.0104 163.478 18.2017C163.478 17.3996 163.615 16.7036 163.89 16.1136C164.165 15.5237 164.548 15.0679 165.039 14.7464C165.529 14.425 166.096 14.2642 166.739 14.2642C167.236 14.2642 167.629 14.3471 167.917 14.5128C168.209 14.6752 168.431 14.8608 168.583 15.0696C168.739 15.2751 168.86 15.4441 168.946 15.5767H169.046V11.8182H170.219V22H169.086V20.8267H168.946C168.86 20.9659 168.738 21.1416 168.578 21.3537C168.419 21.5625 168.192 21.7498 167.897 21.9155C167.602 22.0779 167.21 22.1591 166.719 22.1591ZM166.878 21.1051C167.349 21.1051 167.747 20.9825 168.071 20.7372C168.396 20.4886 168.643 20.1456 168.812 19.7081C168.981 19.2673 169.066 18.7585 169.066 18.1818C169.066 17.6117 168.983 17.1129 168.817 16.6854C168.651 16.2545 168.406 15.9197 168.081 15.6811C167.757 15.4392 167.355 15.3182 166.878 15.3182C166.381 15.3182 165.967 15.4458 165.635 15.701C165.307 15.9529 165.06 16.2959 164.895 16.7301C164.732 17.161 164.651 17.6449 164.651 18.1818C164.651 18.7254 164.734 19.2192 164.9 19.6634C165.069 20.1042 165.317 20.4555 165.645 20.7173C165.977 20.9759 166.388 21.1051 166.878 21.1051ZM174.062 19.1364V19.0767C174.069 18.4437 174.135 17.9399 174.261 17.5653C174.387 17.1908 174.566 16.8875 174.798 16.6555C175.03 16.4235 175.308 16.2098 175.633 16.0142C175.829 15.8949 176.004 15.754 176.16 15.5916C176.316 15.4259 176.439 15.2353 176.528 15.0199C176.621 14.8045 176.667 14.5658 176.667 14.304C176.667 13.9792 176.591 13.6974 176.439 13.4588C176.286 13.2202 176.082 13.0362 175.827 12.907C175.572 12.7777 175.288 12.7131 174.977 12.7131C174.705 12.7131 174.443 12.7694 174.191 12.8821C173.94 12.9948 173.729 13.1721 173.56 13.4141C173.391 13.656 173.293 13.9725 173.267 14.3636H172.014C172.04 13.8002 172.186 13.3179 172.451 12.9169C172.72 12.5159 173.073 12.2093 173.51 11.9972C173.951 11.785 174.44 11.679 174.977 11.679C175.56 11.679 176.067 11.795 176.498 12.027C176.932 12.259 177.267 12.5772 177.502 12.9815C177.741 13.3859 177.86 13.8466 177.86 14.3636C177.86 14.7282 177.804 15.058 177.691 15.353C177.582 15.648 177.423 15.9115 177.214 16.1435C177.009 16.3755 176.76 16.581 176.468 16.7599C176.177 16.9422 175.943 17.1345 175.767 17.3366C175.592 17.5355 175.464 17.7725 175.385 18.0476C175.305 18.3227 175.262 18.6657 175.255 19.0767V19.1364H174.062ZM174.699 22.0795C174.453 22.0795 174.243 21.9917 174.067 21.8161C173.891 21.6404 173.804 21.4299 173.804 21.1847C173.804 20.9394 173.891 20.7289 174.067 20.5533C174.243 20.3776 174.453 20.2898 174.699 20.2898C174.944 20.2898 175.154 20.3776 175.33 20.5533C175.506 20.7289 175.593 20.9394 175.593 21.1847C175.593 21.3471 175.552 21.4962 175.469 21.6321C175.39 21.768 175.282 21.8774 175.146 21.9602C175.013 22.0398 174.864 22.0795 174.699 22.0795Z" fill="#91B599"/>
</g>
<defs>
<filter id="filter0_ii_539_37" x="0" y="-0.3" width="316.52" height="34.5" filterUnits="userSpaceOnUse" color-interpolation-filters="sRGB">
<feFlood flood-opacity="0" result="BackgroundImageFix"/>
<feBlend mode="normal" in="SourceGraphic" in2="BackgroundImageFix" result="shape"/>
<feColorMatrix in="SourceAlpha" type="matrix" values="0 0 0 0 0 0 0 0 0 0 0 0 0 0 0 0 0 0 127 0" result="hardAlpha"/>
<feMorphology radius="0.8" operator="dilate" in="SourceAlpha" result="effect1_innerShadow_539_37"/>
<feOffset dx="1.52" dy="3"/>
<feGaussianBlur stdDeviation="1.5"/>
<feComposite in2="hardAlpha" operator="arithmetic" k2="-1" k3="1"/>
<feColorMatrix type="matrix" values="0 0 0 0 0 0 0 0 0 0 0 0 0 0 0 0 0 0 0.2 0"/>
<feBlend mode="normal" in2="shape" result="effect1_innerShadow_539_37"/>
<feColorMatrix in="SourceAlpha" type="matrix" values="0 0 0 0 0 0 0 0 0 0 0 0 0 0 0 0 0 0 127 0" result="hardAlpha"/>
<feOffset dy="-0.3"/>
<feGaussianBlur stdDeviation="0.5"/>
<feComposite in2="hardAlpha" operator="arithmetic" k2="-1" k3="1"/>
<feColorMatrix type="matrix" values="0 0 0 0 0.87451 0 0 0 0 0.85098 0 0 0 0 0.85098 0 0 0 0.4 0"/>
<feBlend mode="normal" in2="effect1_innerShadow_539_37" result="effect2_innerShadow_539_37"/>
</filter>
<clipPath id="clip0_539_37">
<rect width="16" height="16" fill="white" transform="translate(279 8)"/>
</clipPath>
</defs>
</svg>
